# xmcd
#
# Track frame offsets:
#	150
#	22813
#	38742
#	54604
#	69697
#	86974
#	108771
#	126507
#	142892
#	162893
#	179527
#	197401
#	215360
#
# Disc length: 3054 seconds
#
# Revision: 0
# Processed by: cddbd v1.5.1PL0 Copyright (c) Steve Scherf et al.
# Submitted via: dBpowerAMP V4.0
#
DISCID=b30bec0d
DTITLE=100% R&B EN ESPAÑOL - CD2 
DYEAR=2004
DGENRE=R&B
TTITLE0=01 EDDINE SAÏD pasión
TTITLE1=02 ANNA VELASCO quédate rmx
TTITLE2=03 DEYÁ VÚ ponme a 100
TTITLE3=04 BAPHMET ¿qué hice mal?
TTITLE4=05 FUNKOPOLITAN razones
TTITLE5=06 DANI LAPIEDRA en el aire
TTITLE6=07 PATRIZIA no me haces falta ya
TTITLE7=08 AROA juego sucio
TTITLE8=09 LUNA sientes
TTITLE9=10 MUSSAS hoy vamos a más
TTITLE10=11 YSHIA sé que eres tú
TTITLE11=12 J SWELL 40º
TTITLE12=12 LA JET SET CONEXION quiere mandar en ti
EXTD=
EXTT0=
EXTT1=
EXTT2=
EXTT3=
EXTT4=
EXTT5=
EXTT6=
EXTT7=
EXTT8=
EXTT9=
EXTT10=
EXTT11=
EXTT12=
PLAYORDER=
